<svg width="220" height="220" viewBox="0 0 220 220" fill="none" xmlns="http://www.w3.org/2000/svg">
<rect width="220" height="220" fill="white"/>
<path d="M110 28.7071C110 26.6597 111.661 24.9904 113.706 25.0916C129.155 25.8556 144.024 31.3815 156.248 40.9567C168.472 50.5318 177.399 63.6448 181.841 78.4608C182.429 80.422 181.206 82.4345 179.218 82.9249V82.9249C177.23 83.4152 175.231 82.1973 174.632 80.2393C170.595 67.0318 162.595 55.3465 151.676 46.7935C140.757 38.2406 127.496 33.2729 113.706 32.5159C111.661 32.4037 110 30.7546 110 28.7071V28.7071Z" fill="#CC3D86"/>
<path d="M110 28.7071C110 26.6597 111.661 24.9904 113.706 25.0916C129.155 25.8556 144.024 31.3815 156.248 40.9567C168.472 50.5318 177.399 63.6448 181.841 78.4608C182.429 80.422 181.206 82.4345 179.218 82.9249V82.9249C177.23 83.4152 175.231 82.1973 174.632 80.2393C170.595 67.0318 162.595 55.3465 151.676 46.7935C140.757 38.2406 127.496 33.2729 113.706 32.5159C111.661 32.4037 110 30.7546 110 28.7071V28.7071Z" fill="#CC3D86"/>
<path d="M110.5 48.8411C110.5 46.7197 112.222 44.9862 114.338 45.1329C121.379 45.6209 128.275 47.4487 134.651 50.5303C141.027 53.6118 146.743 57.8798 151.5 63.094C152.93 64.6611 152.642 67.0873 150.979 68.4053V68.4053C149.317 69.7232 146.912 69.432 145.465 67.8808C141.439 63.5657 136.641 60.0246 131.308 57.4469C125.975 54.8693 120.219 53.3099 114.337 52.8363C112.222 52.6661 110.5 50.9624 110.5 48.8411V48.8411Z" fill="#FDD200"/>
<path d="M110 70.4599C110 68.5491 111.553 66.9828 113.455 67.1661C119.925 67.7898 126.129 70.1568 131.391 74.0446C136.654 77.9324 140.739 83.167 143.237 89.1681C143.971 90.9322 142.93 92.8766 141.104 93.4381V93.4381C139.277 93.9996 137.36 92.9627 136.586 91.2158C134.55 86.6239 131.351 82.6182 127.279 79.6103C123.208 76.6025 118.439 74.7215 113.452 74.1254C111.554 73.8986 110 72.3708 110 70.4599V70.4599Z" fill="#E86E01"/>
<path d="M110 90.6586C110 88.638 111.65 86.9676 113.64 87.3179C115.144 87.5826 116.619 88.0113 118.036 88.5985C120.584 89.6539 122.899 91.2007 124.849 93.1508C126.799 95.1008 128.346 97.4158 129.401 99.9636C129.989 101.381 130.417 102.856 130.682 104.36C131.032 106.35 129.362 108 127.341 108V108C125.321 108 123.73 106.334 123.197 104.385C123.046 103.835 122.86 103.293 122.641 102.764C121.954 101.104 120.946 99.5954 119.675 98.3248C118.405 97.0543 116.896 96.0464 115.236 95.3588C114.707 95.1395 114.165 94.9542 113.615 94.8035C111.666 94.2696 110 92.6792 110 90.6586V90.6586Z" fill="#E02716"/>
<path d="M119.67 102.417L117.359 100.107C117.291 100.039 117.198 100 117.101 100C117.004 100 116.911 100.039 116.843 100.107L114.814 102.136C114.681 102.269 114.498 102.341 114.31 102.335L111.98 102.257C111.592 102.244 111.211 102.395 110.935 102.67L108.861 104.745L108.667 104.551C108.525 104.409 108.293 104.409 108.15 104.551L106.548 106.154C106.405 106.297 106.405 106.528 106.548 106.671L113.106 113.229C113.177 113.3 113.271 113.336 113.364 113.336C113.458 113.336 113.551 113.3 113.623 113.229L115.225 111.626C115.368 111.484 115.368 111.252 115.225 111.109L115.032 110.916L117.107 108.841C117.382 108.566 117.532 108.185 117.519 107.796L117.442 105.467C117.436 105.279 117.508 105.096 117.641 104.963L119.67 102.934C119.812 102.791 119.812 102.56 119.67 102.417ZM117.124 104.446C116.849 104.721 116.698 105.102 116.711 105.491L116.789 107.821C116.795 108.008 116.722 108.192 116.59 108.324L114.515 110.399L113.683 109.567C113.541 109.425 113.309 109.425 113.167 109.567C113.024 109.71 113.024 109.942 113.167 110.084L114.45 111.368L113.364 112.454L107.323 106.413L108.409 105.327L108.602 105.52C108.602 105.52 108.602 105.52 108.602 105.52L112.133 109.05C112.275 109.193 112.507 109.193 112.649 109.05C112.792 108.908 112.792 108.676 112.649 108.534L109.378 105.262L111.452 103.187C111.585 103.054 111.769 102.982 111.956 102.988L114.285 103.065C114.673 103.079 115.055 102.928 115.33 102.653L117.101 100.882L118.894 102.676L117.124 104.446Z" fill="#FDD023"/>
<path d="M112.434 112.31C112.141 111.971 111.742 111.608 111.524 111.391C111.307 111.174 111.463 111.34 111.186 111.041C110 109.877 110.939 110.785 110.317 110.193L110.739 110.616L109.161 109.038L108.983 108.837C109.492 109.346 109.265 109.141 108.644 108.498C108.386 108.263 108.392 108.265 108.175 108.048C107.957 107.831 108.111 107.988 107.797 107.651C107.535 107.411 107.966 107.82 107.535 107.411L106.671 106.548C106.528 106.405 106.297 106.405 106.154 106.548L104.551 108.15C104.483 108.219 104.444 108.312 104.444 108.409C104.444 108.506 104.483 108.599 104.551 108.667L104.745 108.861L102.67 110.935C102.395 111.211 102.245 111.592 102.257 111.98L102.335 114.31C102.341 114.497 102.269 114.681 102.136 114.814L100.107 116.843C99.9643 116.985 99.9643 117.217 100.107 117.36L102.417 119.67C102.486 119.738 102.579 119.777 102.676 119.777C102.773 119.777 102.866 119.738 102.934 119.67L104.963 117.641C105.096 117.508 105.279 117.436 105.467 117.442L107.796 117.519C108.185 117.532 108.566 117.382 108.841 117.107L110.916 115.032L111.109 115.225C111.181 115.297 111.274 115.332 111.368 115.332C111.461 115.332 111.555 115.297 111.626 115.225L113.229 113.623C113.372 113.48 113.372 113.248 113.229 113.106L112.365 112.242L112.013 111.867C112.493 112.369 112.649 112.526 112.434 112.31ZM107.959 107.826C107.873 107.746 108.096 107.995 107.959 107.826C108.052 107.942 108.307 108.184 108.386 108.263C108.465 108.342 108.205 108.082 108.281 108.159C108.364 108.241 108.467 108.335 108.348 108.225L108.644 108.521L108.052 107.928L107.959 107.826ZM112.454 113.364L111.368 114.45L107.559 110.641C107.417 110.499 107.185 110.499 107.042 110.641C106.971 110.713 106.935 110.806 106.935 110.9C106.935 110.994 106.971 111.087 107.042 111.158L110.399 114.515L108.324 116.59C108.192 116.723 108.008 116.795 107.821 116.789L105.491 116.711C105.102 116.699 104.721 116.849 104.446 117.124L102.676 118.894L100.882 117.101L102.653 115.331C102.928 115.055 103.078 114.675 103.065 114.286L102.988 111.956C102.982 111.769 103.054 111.585 103.187 111.452L105.262 109.378L106.008 110.124C106.151 110.267 106.383 110.267 106.525 110.124C106.668 109.982 106.668 109.75 106.525 109.607L105.52 108.602L105.327 108.409L106.413 107.323L107.276 108.187L108.386 109.296L108.386 109.297L110.481 111.391L111.59 112.501L112.454 113.364ZM111.426 111.293L111.849 111.725L111.265 111.124L111.186 111.041C111.341 111.208 110.989 110.847 111.084 110.941C111.18 111.034 111.553 111.423 111.632 111.503C111.712 111.582 111.59 111.459 111.69 111.562C111.79 111.664 111.294 111.157 111.426 111.293Z" fill="#FDD023"/>
<circle cx="140" cy="90" r="2.5" fill="#E86E01" stroke="white"/>
<circle cx="148" cy="65" r="2.5" fill="#FDD200" stroke="white"/>
<circle cx="178" cy="79" r="2.5" fill="#CC3D86" stroke="white"/>
<circle cx="127" cy="104" r="2.5" fill="#E02716" stroke="white"/>
</svg>
